<svg width="18" height="18" viewBox="0 0 18 18" fill="none" xmlns="http://www.w3.org/2000/svg">
<g clip-path="url(#clip0_743_18)">
<circle cx="9" cy="9" r="8" fill="white"/>
<path fill-rule="evenodd" clip-rule="evenodd" d="M17.9718 8.99998C17.9718 4.0484 13.9517 0.0283203 9.00016 0.0283203H8.99974C4.04816 0.0283203 0.0280762 4.0484 0.0280762 8.99998C0.0280762 13.9516 4.04816 17.9716 8.99974 17.9716H9.00016C13.9517 17.9716 17.9718 13.9516 17.9718 8.99998ZM9.9008 9.00006C9.9008 11.2054 8.12512 12.9932 5.93482 12.9932C3.74451 12.9932 1.9687 11.205 1.9687 9.00006C1.9687 6.79506 3.74437 5.00673 5.93482 5.00673C8.12526 5.00673 9.9008 6.79467 9.9008 9.00006ZM14.2516 9.00006C14.2516 11.076 13.3638 12.7595 12.2686 12.7595C11.1733 12.7595 10.2855 11.076 10.2855 9.00006C10.2855 6.92415 11.1732 5.24062 12.2684 5.24062C13.3637 5.24062 14.2515 6.92362 14.2515 9.00006H14.2516ZM16.0312 9.00006C16.0312 10.8595 15.719 12.3679 15.3338 12.3679C14.9485 12.3679 14.6364 10.86 14.6364 9.00006C14.6364 7.14015 14.9486 5.63223 15.3338 5.63223C15.7189 5.63223 16.0312 7.14001 16.0312 9.00006Z" fill="#2E9DD1"/>
</g>
<defs>
<clipPath id="clip0_743_18">
<rect width="18" height="18" fill="white"/>
</clipPath>
</defs>
</svg>
